<svg width="64" height="64" xmlns="http://www.w3.org/2000/svg">

 <g>
  <title>background</title>
  <rect fill="none" id="canvas_background" height="402" width="582" y="-1" x="-1"/>
 </g>
 <g>
  <title>Layer 1</title>
  <path fill="#231f20" id="svg_2" d="m26,11.6c-7.7,0 -14,6.3 -14,14s6.3,14 14,14s14,-6.3 14,-14s-6.3,-14 -14,-14zm0,26c-6.6,0 -12,-5.4 -12,-12s5.4,-12 12,-12s12,5.4 12,12s-5.4,12 -12,12z" class="st0"/>
  <path fill="#231f20" id="svg_3" d="m57.5,50.5l-13.6,-13.6c2,-3.3 3.1,-7 3.1,-10.9c0,-11.6 -9.4,-21 -21,-21s-21,9.4 -21,21s9.4,21 21,21c3.9,0 7.6,-1.1 10.9,-3.1l13.6,13.6c1,1 2.2,1.5 3.5,1.5s2.5,-0.5 3.5,-1.5c2,-1.9 2,-5 0,-7zm-1.4,5.6c-1.2,1.2 -3,1.2 -4.2,0l-14.1,-14.1c-0.2,-0.2 -0.4,-0.3 -0.7,-0.3c-0.2,0 -0.4,0.1 -0.6,0.2c-3.1,2 -6.8,3.1 -10.5,3.1c-10.5,0 -19,-8.5 -19,-19s8.5,-19 19,-19s19,8.5 19,19c0,3.7 -1.1,7.4 -3.2,10.5c-0.3,0.4 -0.2,0.9 0.1,1.3l14.2,14.2c1.2,1.1 1.2,3 0,4.1z" class="st0"/>
 </g>
</svg>